# xmcd
# 
# Track frame offsets:
#     150
#     15526
#     34074
#     46805
#     59259
#     78322
#     100750
#     127999
#     156291
#     215268
#     228379
# 
# Disc length: 3269
# 
# Revision: 0
# Processed by: cddbd v1.5.2PL0 Copyright (c) Steve Scherf et al.
# Submitted via: fre:ac v1.0.17
# 
DISCID=800cc30b
DTITLE=Benny Goodman - 1938 Carnegie Hall Concert (2006 remaster) - Disc 2
DYEAR=1938
DGENRE=Jazz
TTITLE0=Blue Skies
TTITLE1=Loch Lomond
TTITLE2=Blue Room
TTITLE3=Swintime in the Rockies
TTITLE4=Bei Mir Bist Du Schoen
TTITLE5=China Boy
TTITLE6=Stompin' At The Savoy
TTITLE7=Dizzy Spells
TTITLE8=Sing Sing Sing (With A Swing)
TTITLE9=If Dreams Come True
TTITLE10=Big John's Special
EXTD=
EXTT0=
EXTT1=
EXTT2=
EXTT3=
EXTT4=
EXTT5=
EXTT6=
EXTT7=
EXTT8=
EXTT9=
EXTT10=
PLAYORDER=
